<svg width="24" height="24" viewBox="0 0 24 24" fill="none" xmlns="http://www.w3.org/2000/svg">
<path d="M4.13865 21.3866C3.93748 21.3866 3.74096 21.3218 3.57911 21.197C3.35251 21.0236 3.2207 20.753 3.2207 20.4663L3.23228 9.71914C3.23228 9.30294 3.51204 8.93762 3.91668 8.83126L8.78854 7.53643C8.92496 7.49943 9.07064 7.49479 9.20938 7.52485L15.2813 8.77114L19.427 7.54337C19.7045 7.46244 20.0675 7.51562 20.3011 7.68904C20.5346 7.86246 20.7334 8.13528 20.7334 8.42662V19.1738C20.7334 19.5807 20.4028 19.9392 20.012 20.0548L15.6142 21.3496C15.4685 21.3912 15.2997 21.4005 15.1518 21.3681L9.03596 20.1172L4.38144 21.3542C4.30282 21.375 4.21958 21.3843 4.14096 21.3843L4.13865 21.3866ZM8.99893 18.2535C9.06136 18.2535 9.12149 18.2605 9.18392 18.272L15.3367 19.5206L18.8813 18.4871V9.65671L15.6373 10.6001C15.4916 10.644 15.3113 10.6487 15.1633 10.6186L9.06368 9.36768L5.0751 10.4244L5.06122 19.2686L8.76308 18.2836C8.83938 18.2628 8.918 18.2535 8.99661 18.2535H8.99893Z" fill="white"/>
<path d="M21.0803 7.0509C21.0803 9.2845 17.0363 14.0361 17.0363 14.0361C17.0363 14.0361 12.9922 9.2845 12.9922 7.0509C12.9922 4.8173 14.8027 3.00684 17.0363 3.00684C19.2699 3.00684 21.0803 4.8173 21.0803 7.0509Z" fill="#0A0514"/>
<path d="M17.0366 14.9562C16.7661 14.9562 16.5117 14.8383 16.336 14.6325C15.6238 13.7955 12.0723 9.49941 12.0723 7.05077C12.0723 4.31311 14.2989 2.08643 17.0366 2.08643C19.7743 2.08643 22.0009 4.31311 22.0009 7.05077C22.0009 9.49941 18.4494 13.7955 17.7372 14.6325C17.5615 14.8383 17.3071 14.9562 17.0366 14.9562ZM17.0366 3.92465C15.314 3.92465 13.9105 5.32586 13.9105 7.05077C13.9105 8.17451 15.5637 10.7087 17.0366 12.5839C18.5095 10.7087 20.1627 8.17451 20.1627 7.05077C20.1627 5.32817 18.7615 3.92465 17.0366 3.92465Z" fill="white"/>
<path d="M17.0367 8.56747C16.2135 8.56747 15.543 7.89694 15.543 7.07379C15.543 6.25064 16.2135 5.58008 17.0367 5.58008C17.8598 5.58008 18.5303 6.25064 18.5303 7.07379C18.5303 7.89694 17.8598 8.56747 17.0367 8.56747ZM17.0367 6.72927C16.847 6.72927 16.6921 6.88419 16.6921 7.07379C16.6921 7.26339 16.847 7.41831 17.0367 7.41831C17.2263 7.41831 17.3812 7.26339 17.3812 7.07379C17.3812 6.88419 17.2263 6.72927 17.0367 6.72927Z" fill="white"/>
</svg>
