<svg width="24" height="25" viewBox="0 0 24 25" fill="none" xmlns="http://www.w3.org/2000/svg">
<path d="M7.96518 14.3799H15.1171C16.8219 14.3799 18.2046 15.7626 18.2046 17.4674V19.289H4.87769V17.4674C4.87769 15.7626 6.26044 14.3799 7.96518 14.3799Z" fill="#0A0514"/>
<path d="M18.2044 20.1668H4.87748C4.3923 20.1668 3.99976 19.7742 3.99976 19.289C3.99976 16.0979 6.59545 13.5022 9.78659 13.5022H13.2931C16.4842 13.5022 19.0799 16.0979 19.0799 19.289C19.0799 19.7742 18.6874 20.1668 18.2022 20.1668H18.2044ZM5.85003 18.4135H17.2319C16.8305 16.6095 15.2184 15.2576 13.2953 15.2576H9.7888C7.86574 15.2576 6.25362 16.6095 5.85224 18.4135H5.85003Z" fill="white"/>
<path d="M11.5401 11.6917C13.1868 11.6917 14.5217 10.3567 14.5217 8.71003C14.5217 7.06332 13.1868 5.72839 11.5401 5.72839C9.8934 5.72839 8.55847 7.06332 8.55847 8.71003C8.55847 10.3567 9.8934 11.6917 11.5401 11.6917Z" fill="#0A0514"/>
<path d="M11.5397 12.5694C9.4115 12.5694 7.6825 10.8382 7.6825 8.71226C7.6825 6.5863 9.41371 4.8551 11.5397 4.8551C13.6656 4.8551 15.3968 6.5863 15.3968 8.71226C15.3968 10.8382 13.6656 12.5694 11.5397 12.5694ZM11.5397 6.60835C10.3797 6.60835 9.43575 7.55224 9.43575 8.71226C9.43575 9.87227 10.3797 10.8162 11.5397 10.8162C12.6997 10.8162 13.6436 9.87227 13.6436 8.71226C13.6436 7.55224 12.6997 6.60835 11.5397 6.60835Z" fill="white"/>
</svg>
