<svg width="24" height="24" viewBox="0 0 24 24" fill="none" xmlns="http://www.w3.org/2000/svg">
<path d="M19.1269 5.97754H4.58398V19.2408H19.1269V5.97754Z" fill="#0A0514"/>
<path d="M19.1264 20.1122H4.5835C4.10063 20.1122 3.70996 19.7215 3.70996 19.2386V5.97534C3.70996 5.49248 4.10063 5.10181 4.5835 5.10181H19.1264C19.6092 5.10181 19.9999 5.49248 19.9999 5.97534V19.2386C19.9999 19.7215 19.6092 20.1122 19.1264 20.1122ZM5.45703 18.3673H18.255V6.84888H5.45703V18.3673Z" fill="white"/>
<path d="M6.89453 8.94486C6.41167 8.94486 6.0166 8.55417 6.0166 8.07131V4.58156C6.0166 4.0987 6.41167 3.70801 6.89453 3.70801C7.37739 3.70801 7.77246 4.0987 7.77246 4.58156V8.07131C7.77246 8.55417 7.37739 8.94486 6.89453 8.94486Z" fill="white"/>
<path d="M10.1865 8.94486C9.70366 8.94486 9.30859 8.55417 9.30859 8.07131V4.58156C9.30859 4.0987 9.70366 3.70801 10.1865 3.70801C10.6694 3.70801 11.0645 4.0987 11.0645 4.58156V8.07131C11.0645 8.55417 10.6694 8.94486 10.1865 8.94486Z" fill="white"/>
<path d="M13.2598 8.94486C12.7769 8.94486 12.3818 8.55417 12.3818 8.07131V4.58156C12.3818 4.0987 12.7769 3.70801 13.2598 3.70801C13.7426 3.70801 14.1377 4.0987 14.1377 4.58156V8.07131C14.1377 8.55417 13.7426 8.94486 13.2598 8.94486Z" fill="white"/>
<path d="M16.333 8.94486C15.8501 8.94486 15.4551 8.55417 15.4551 8.07131V4.58156C15.4551 4.0987 15.8501 3.70801 16.333 3.70801C16.8159 3.70801 17.2109 4.0987 17.2109 4.58156V8.07131C17.2109 8.55417 16.8159 8.94486 16.333 8.94486Z" fill="white"/>
<path d="M16.0419 13.6616H7.6665C7.18364 13.6616 6.79297 13.3763 6.79297 12.8934C6.79297 12.4106 7.18364 12.1252 7.6665 12.1252H16.0419C16.5248 12.1252 16.9155 12.4106 16.9155 12.8934C16.9155 13.3763 16.5248 13.6616 16.0419 13.6616Z" fill="white"/>
<path d="M16.0419 16.9539H7.6665C7.18364 16.9539 6.79297 16.5588 6.79297 16.0759C6.79297 15.5931 7.18364 15.198 7.6665 15.198H16.0419C16.5248 15.198 16.9155 15.5931 16.9155 16.0759C16.9155 16.5588 16.5248 16.9539 16.0419 16.9539Z" fill="white"/>
</svg>
