<svg width="24" height="24" viewBox="0 0 24 24" fill="none" xmlns="http://www.w3.org/2000/svg">
<path d="M11.933 17.88C8.14442 17.88 4.7586 15.7618 3.10004 12.3523C2.97447 12.0916 2.97447 11.7884 3.10004 11.5277C4.7586 8.11821 8.14442 6 11.933 6C15.7217 6 19.1051 8.11821 20.766 11.5277C20.8916 11.7884 20.8916 12.0916 20.766 12.3523C19.1051 15.7618 15.7217 17.88 11.933 17.88ZM5.00976 11.94C6.4148 14.4539 9.0282 15.9963 11.933 15.9963C14.8379 15.9963 17.4513 14.4539 18.8563 11.94C17.4513 9.4261 14.8379 7.88365 11.933 7.88365C9.0282 7.88365 6.4148 9.4261 5.00976 11.94Z" fill="white"/>
<path d="M11.9325 15.3306C10.0631 15.3306 8.54199 13.8094 8.54199 11.94C8.54199 10.0706 10.0631 8.54944 11.9325 8.54944C13.802 8.54944 15.3231 10.0706 15.3231 11.94C15.3231 13.8094 13.802 15.3306 11.9325 15.3306ZM11.9325 10.4331C11.1009 10.4331 10.4256 11.1084 10.4256 11.94C10.4256 12.7716 11.1009 13.4469 11.9325 13.4469C12.7642 13.4469 13.4394 12.7716 13.4394 11.94C13.4394 11.1084 12.7642 10.4331 11.9325 10.4331Z" fill="white"/>
</svg>
