<svg width="77" height="23" viewBox="0 0 77 23" fill="none" xmlns="http://www.w3.org/2000/svg">
<path d="M76.1691 15.5036C76.3851 15.5036 76.4932 15.6058 76.4932 15.8102C76.4932 16.0088 76.3851 16.184 76.1691 16.3358C75.9588 16.4876 75.6464 16.6628 75.2318 16.8614C74.8172 17.0541 74.3004 17.2672 73.6814 17.5008C73.0682 17.7344 72.3558 17.9329 71.5441 18.0965C70.7382 18.2658 69.9674 18.3505 69.2316 18.3505C67.4972 18.3505 66.63 17.9534 66.63 17.1592C66.63 16.6453 66.922 15.7285 67.506 14.4087C68.0958 13.0831 68.3907 12.1896 68.3907 11.7283C68.3907 11.2086 67.9848 10.9487 67.1731 10.9487C66.8052 10.9487 66.3877 10.9954 65.9205 11.0889C65.6986 11.8714 65.3015 13.1152 64.7292 14.8204C64.1628 16.5256 63.8416 17.495 63.7657 17.7286C63.6956 17.9621 63.5408 18.0789 63.3014 18.0789L58.7903 18.1753C58.7261 18.1753 58.6531 18.1344 58.5713 18.0527C58.4954 17.9767 58.4574 17.8862 58.4574 17.7811C58.4574 17.6702 58.5801 17.2877 58.8253 16.6336C59.0764 15.9737 59.3509 15.2671 59.6487 14.5138C59.9524 13.7547 60.2268 12.9225 60.4721 12.0174C60.7232 11.1064 60.8488 10.3531 60.8488 9.75744L60.84 9.42458C60.84 9.13259 61.1232 8.9866 61.6897 8.9866L65.8417 8.89025C65.9935 8.89025 66.1074 8.93696 66.1833 9.0304C66.2592 9.11799 66.2971 9.22895 66.2971 9.36326C66.2971 9.49173 66.265 9.70196 66.2008 9.99394C68.2564 9.13551 69.944 8.7063 71.2638 8.7063C71.8244 8.7063 72.3353 8.86105 72.7967 9.17055C73.3106 9.51509 73.5675 10.0377 73.5675 10.7385C73.5675 11.4568 73.296 12.397 72.7529 13.559C72.2098 14.7211 71.9383 15.4394 71.9383 15.7139C71.9383 16.257 72.1543 16.5285 72.5865 16.5285C72.8609 16.5285 73.3281 16.4263 73.988 16.2219C74.6537 16.0117 75.1442 15.8394 75.4596 15.7051C75.7807 15.5708 76.0172 15.5036 76.1691 15.5036Z" fill="white"/>
<path d="M58.6657 5.64907C58.6657 6.27392 58.3183 6.81992 57.6234 7.2871C56.9343 7.74843 56.2043 7.97909 55.4335 7.97909C54.6685 7.97909 54.0729 7.82434 53.6466 7.51484C53.2203 7.1995 53.0071 6.817 53.0071 6.36735C53.0071 5.9177 53.1706 5.50892 53.4977 5.14102C53.8247 4.77313 54.248 4.48406 54.7678 4.27384C55.2933 4.06361 55.8627 3.9585 56.4759 3.9585C57.089 3.9585 57.6058 4.12201 58.0263 4.44903C58.4526 4.77021 58.6657 5.17022 58.6657 5.64907ZM56.2043 16.5196C56.6014 16.5196 57.1387 16.4261 57.8161 16.2393C58.4993 16.0466 58.9957 15.8772 59.3052 15.7312C59.6147 15.5794 59.8307 15.5035 59.9534 15.5035C60.1986 15.5035 60.3213 15.6261 60.3213 15.8714C60.3213 15.9823 60.2308 16.1079 60.0497 16.248C59.4541 16.6918 58.3825 17.1532 56.835 17.632C55.2875 18.1109 53.9064 18.3503 52.6918 18.3503C51.9385 18.3503 51.3078 18.2306 50.7997 17.9912C50.2917 17.7517 50.0377 17.3868 50.0377 16.8962C50.0377 16.5984 50.2917 15.8685 50.7997 14.7064C51.7574 12.5048 52.2363 10.8464 52.2363 9.73099L52.2275 9.39813C52.2275 9.10615 52.5108 8.96015 53.0772 8.96015L57.4044 8.8638C57.5562 8.8638 57.6701 8.91052 57.746 9.00395C57.8219 9.09155 57.8599 9.19082 57.8599 9.30177C57.8599 9.70471 57.6759 10.3704 57.308 11.2989C56.9401 12.2216 56.5722 13.1297 56.2043 14.0231C55.8364 14.9166 55.6525 15.556 55.6525 15.9415C55.6525 16.3269 55.8364 16.5196 56.2043 16.5196Z" fill="white"/>
<path d="M36.6513 8.9866L40.6281 8.89025C40.7799 8.89025 40.8938 8.93696 40.9697 9.0304C41.0456 9.11799 41.0836 9.22019 41.0836 9.33698C41.0836 9.44793 41.0631 9.64356 41.0223 9.92387C40.9814 10.1983 40.9609 10.3998 40.9609 10.5283C42.0354 9.31362 43.4691 8.7063 45.2618 8.7063C46.3539 8.7063 47.2123 8.9866 47.8371 9.54721C48.4678 10.102 48.7831 10.8903 48.7831 11.9123C48.7831 13.8977 48.0036 15.5212 46.4444 16.7825C48.2547 16.6541 49.6445 16.3183 50.6139 15.7752C50.9351 15.5942 51.1716 15.5036 51.3234 15.5036C51.5219 15.5036 51.6212 15.6117 51.6212 15.8277C51.6212 15.9796 51.5132 16.1343 51.2971 16.292C50.3044 16.9869 49.0255 17.5008 47.4605 17.8337C45.9013 18.1665 44.2224 18.333 42.4238 18.333C42.2019 18.3446 42.0354 18.3505 41.9245 18.3505C41.3055 18.3505 40.6865 18.257 40.0675 18.0702C39.4485 17.8833 38.9346 17.6205 38.5258 17.2818C38.1229 18.514 37.9214 19.9359 37.9214 21.5477L37.9302 21.8017C37.9302 22.0937 37.6469 22.2397 37.0805 22.2397L33.0073 22.3448C32.8672 22.3448 32.7562 22.301 32.6745 22.2134C32.5927 22.1316 32.5518 22.0382 32.5518 21.9331C32.5518 20.9345 33.0979 18.9987 34.1899 16.1256C35.2819 13.2466 35.8279 11.3195 35.8279 10.3443L35.7929 9.61728C35.7929 9.40122 35.8454 9.24355 35.9505 9.14427C36.0615 9.03916 36.2951 8.9866 36.6513 8.9866ZM42.6778 10.9312C41.5799 10.9312 40.6631 11.7721 39.9273 13.4539C39.5886 14.2248 39.4193 14.8496 39.4193 15.3285C39.4193 15.8073 39.4981 16.1372 39.6558 16.3183C39.8193 16.4993 40.1346 16.5898 40.6018 16.5898C41.0748 16.5898 41.5829 16.3738 42.126 15.9416C42.6749 15.5036 43.1158 14.9547 43.4486 14.2948C43.7815 13.635 43.9479 13.0422 43.9479 12.5167C43.9479 11.9853 43.8311 11.5882 43.5975 11.3254C43.364 11.0626 43.0574 10.9312 42.6778 10.9312Z" fill="white"/>
<path d="M21.0225 17.4132C19.9246 16.7533 19.3757 15.7518 19.3757 14.4087C19.3757 13.708 19.5188 13.051 19.8049 12.4378C20.0969 11.8188 20.494 11.2845 20.9962 10.8349C21.5043 10.3852 22.0941 9.99978 22.7656 9.6786C24.1087 9.0304 25.6475 8.7063 27.3819 8.7063C30.7922 8.7063 32.6346 9.78663 32.9091 11.9473C33.3179 12.0816 33.7383 12.1488 34.1704 12.1488C34.6084 12.1488 34.9734 12.1167 35.2654 12.0524C35.5574 11.9882 35.8318 11.8918 36.0888 11.7634C36.3516 11.6349 36.5384 11.5706 36.6494 11.5706C36.8713 11.5706 36.9822 11.6787 36.9822 11.8947C36.9822 12.1108 36.81 12.3356 36.4654 12.5692C35.8172 13.013 34.9588 13.2349 33.8901 13.2349C33.4872 13.2349 33.1602 13.2145 32.9091 13.1736C32.7222 14.6452 31.9631 15.8686 30.6316 16.8438C29.9951 17.311 29.2126 17.6789 28.2841 17.9475C27.3614 18.2162 26.4037 18.3505 25.411 18.3505C24.4241 18.3505 23.5773 18.2716 22.8707 18.114C22.1641 17.9621 21.548 17.7286 21.0225 17.4132ZM24.2022 15.1795C24.2022 16.2599 24.5963 16.8001 25.3847 16.8001C25.8869 16.8001 26.3541 16.5256 26.7862 15.9767C27.2242 15.4277 27.5629 14.7474 27.8023 13.9357C28.0476 13.124 28.1702 12.2977 28.1702 11.4568C28.1702 10.61 27.8753 10.1866 27.2855 10.1866C26.7716 10.1866 26.2723 10.429 25.7876 10.9137C25.3088 11.3984 24.9234 12.0291 24.6314 12.8057C24.3452 13.5766 24.2022 14.3678 24.2022 15.1795Z" fill="white"/>
<path d="M11.2012 8.37334C10.845 8.94562 10.261 10.5252 9.44931 13.1122C9.64202 13.1239 9.92816 13.1297 10.3077 13.1297C11.4757 13.1297 12.4596 12.7297 13.2597 11.9297C14.0655 11.1296 14.4685 10.0902 14.4685 8.81131C14.4685 6.94262 13.3444 6.00828 11.0961 6.00828C10.2085 6.00828 9.35003 6.07252 8.5208 6.20099C7.69741 6.32946 7.04629 6.46961 6.56744 6.62144C6.08859 6.77327 5.6477 6.91342 5.24476 7.0419C4.84183 7.17037 4.57612 7.2346 4.44765 7.2346C4.15567 7.2346 4.00968 7.12949 4.00968 6.91926C4.00968 6.70904 4.20823 6.49589 4.60532 6.27982C5.00826 6.05792 5.46667 5.84477 5.98056 5.64038C6.49445 5.43015 7.13097 5.21117 7.89012 4.98342C9.61282 4.45785 11.4786 4.19507 13.4874 4.19507C16.1386 4.19507 17.9431 4.78487 18.9008 5.96448C19.4205 6.601 19.6804 7.36892 19.6804 8.26822C19.6804 9.9734 18.9709 11.3808 17.5518 12.4903C16.343 13.4363 14.7721 14.0378 12.8392 14.2947C12.2728 14.3707 11.6246 14.4086 10.8946 14.4086C10.1705 14.4086 9.56902 14.359 9.09017 14.2597C8.84491 15.0481 8.6522 15.6495 8.51204 16.0642C8.37773 16.4788 8.2259 16.8116 8.05655 17.0627C7.8872 17.3138 7.70617 17.5124 7.51347 17.6584C7.3266 17.8044 7.08717 17.9153 6.79519 17.9912C6.33386 18.1139 5.71777 18.1752 4.94694 18.1752C4.18195 18.1752 3.45491 18.0905 2.76583 17.9212C2.07675 17.7518 1.53075 17.5445 1.12781 17.2992C0.719036 17.054 0.514648 16.8145 0.514648 16.581C0.514648 16.4466 0.573045 16.3386 0.689838 16.2569C0.806631 16.1751 0.940943 16.1342 1.09277 16.1342C1.63002 16.1342 2.02712 16.0496 2.28406 15.8802C2.54685 15.705 2.79795 15.3838 3.03738 14.9167C3.28264 14.4495 3.52499 13.9064 3.76441 13.2874C4.00968 12.6626 4.23742 12.0844 4.44765 11.553C4.65788 11.0158 4.8973 10.4698 5.16593 9.915C5.75573 8.70036 6.45357 7.90324 7.25944 7.52367C7.6507 7.3368 8.16167 7.19373 8.79235 7.09445C9.42303 6.98934 9.91648 6.93678 10.2727 6.93678C10.6348 6.93678 10.8683 6.94262 10.9735 6.9543C11.0844 6.96014 11.1954 6.97766 11.3063 7.00686C11.5282 7.06526 11.6392 7.18789 11.6392 7.37476C11.6392 7.50323 11.6129 7.62294 11.5603 7.73389C11.5136 7.83901 11.3939 8.05216 11.2012 8.37334Z" fill="white"/>
</svg>
