<svg width="24" height="25" viewBox="0 0 24 25" fill="none" xmlns="http://www.w3.org/2000/svg">
<path d="M18.6525 20.1377H5.33091C4.03496 20.1377 2.98047 19.0832 2.98047 17.7872V10.7359C2.98047 9.43998 4.03496 8.38549 5.33091 8.38549H7.28961C7.50642 8.38549 7.68135 8.21055 7.68135 7.99374C7.68135 6.6978 8.73584 5.64331 10.0318 5.64331H13.9492C15.2451 5.64331 16.2996 6.6978 16.2996 7.99374C16.2996 8.21055 16.4745 8.38549 16.6914 8.38549H18.6501C19.946 8.38549 21.0005 9.43998 21.0005 10.7359V17.7872C21.0005 19.0832 19.946 20.1377 18.6501 20.1377H18.6525ZM5.33091 10.3442C5.1141 10.3442 4.93917 10.5191 4.93917 10.7359V17.7872C4.93917 18.004 5.1141 18.179 5.33091 18.179H18.6525C18.8693 18.179 19.0443 18.004 19.0443 17.7872V10.7359C19.0443 10.5191 18.8693 10.3442 18.6525 10.3442H16.6938C15.3979 10.3442 14.3434 9.28969 14.3434 7.99374C14.3434 7.77693 14.1684 7.60201 13.9516 7.60201H10.0342C9.81743 7.60201 9.64251 7.77693 9.64251 7.99374C9.64251 9.28969 8.58801 10.3442 7.29207 10.3442H5.33337H5.33091Z" fill="white"/>
<path d="M11.9904 17.5926C9.82972 17.5926 8.07305 15.8359 8.07305 13.6752C8.07305 11.5145 9.82972 9.75781 11.9904 9.75781C14.1512 9.75781 15.9078 11.5145 15.9078 13.6752C15.9078 15.8359 14.1512 17.5926 11.9904 17.5926ZM11.9904 11.7165C10.9113 11.7165 10.0318 12.5961 10.0318 13.6752C10.0318 14.7543 10.9113 15.6339 11.9904 15.6339C13.0696 15.6339 13.9491 14.7543 13.9491 13.6752C13.9491 12.5961 13.0696 11.7165 11.9904 11.7165Z" fill="white"/>
</svg>
